<svg width="24" height="23" viewBox="0 0 24 23" fill="none" xmlns="http://www.w3.org/2000/svg">
<path fill-rule="evenodd" clip-rule="evenodd" d="M16.0713 21.2207H7.78809C4.55799 21.2207 2.3877 18.9566 2.3877 15.5872V7.79286C2.3877 4.42349 4.55799 2.15942 7.78809 2.15942H11.2979C11.6866 2.15942 12.002 2.47442 12.002 2.86255C12.002 3.25067 11.6866 3.56567 11.2979 3.56567H7.78809C5.36247 3.56567 3.79576 5.22505 3.79576 7.79286V15.5872C3.79576 18.155 5.36247 19.8144 7.78809 19.8144H16.0713C18.4969 19.8144 20.0645 18.155 20.0645 15.5872V11.811C20.0645 11.4229 20.3799 11.1079 20.7686 11.1079C21.1572 11.1079 21.4726 11.4229 21.4726 11.811V15.5872C21.4726 18.9566 19.3014 21.2207 16.0713 21.2207" fill="#260F01"/>
<path fill-rule="evenodd" clip-rule="evenodd" d="M8.83432 14.714H11.6289C11.9856 14.714 12.3197 14.5762 12.5723 14.324L19.621 7.28431C19.9102 6.99556 20.0697 6.61118 20.0697 6.20243C20.0697 5.79274 19.9102 5.40743 19.621 5.11868L18.4786 3.97774C17.8807 3.38243 16.9082 3.38243 16.3093 3.97774L9.29429 10.9837C9.05116 11.2265 8.91317 11.549 8.90472 11.8912L8.83432 14.714ZM11.6289 16.1202H8.11245C7.92283 16.1202 7.74072 16.0434 7.60836 15.9074C7.47601 15.7724 7.40372 15.5896 7.40842 15.3993L7.49666 11.8565C7.51449 11.1515 7.79892 10.4887 8.29831 9.98899H8.29925L15.3142 2.98306C16.4613 1.83931 18.3266 1.83931 19.4737 2.98306L20.6161 4.12399C21.1727 4.67899 21.4787 5.41681 21.4778 6.20243C21.4778 6.98806 21.1718 7.72493 20.6161 8.27899L13.5673 15.3187C13.0501 15.8352 12.3611 16.1202 11.6289 16.1202V16.1202Z" fill="#260F01"/>
<path fill-rule="evenodd" clip-rule="evenodd" d="M19.0319 9.54683C18.8517 9.54683 18.6715 9.47839 18.5344 9.34058L14.2483 5.05996C13.9732 4.78527 13.9732 4.33996 14.2483 4.06527C14.5233 3.79058 14.9683 3.79058 15.2433 4.06527L19.5295 8.34683C19.8045 8.62152 19.8045 9.06589 19.5295 9.34058C19.3924 9.47839 19.2122 9.54683 19.0319 9.54683" fill="#260F01"/>
</svg>
